<?xml version="1.0" standalone="no"?>
<!DOCTYPE svg PUBLIC "-//W3C//DTD SVG 20010904//EN"
 "http://www.w3.org/TR/2001/REC-SVG-20010904/DTD/svg10.dtd">
<svg version="1.0" xmlns="http://www.w3.org/2000/svg"
 width="500.000000pt" height="500.000000pt" viewBox="0 0 500.000000 500.000000"
 preserveAspectRatio="xMidYMid meet">
<metadata>
Created by potrace 1.11, written by Peter Selinger 2001-2013
</metadata>
<g transform="translate(0.000000,500.000000) scale(0.100000,-0.100000)"
fill="#000000" stroke="none">
<path d="M3450 4919 c-19 -4 -53 -9 -75 -12 -85 -12 -180 -28 -184 -32 -2 -3
-11 1 -19 8 -13 9 -14 9 -8 0 5 -9 0 -13 -16 -14 -13 0 -32 -2 -43 -5 -40 -8
-100 -17 -122 -18 -13 0 -23 -4 -23 -8 0 -4 -12 -3 -26 2 -16 7 -23 7 -19 0 3
-6 -4 -10 -17 -11 -28 -1 -64 -6 -138 -20 -30 -6 -68 -12 -85 -14 -63 -9 -187
-28 -195 -30 -3 -1 -27 -5 -55 -10 -27 -4 -59 -9 -70 -12 -41 -8 -111 -16
-152 -17 -22 -1 -39 -4 -36 -8 4 -7 -23 -11 -89 -12 -16 0 -28 -3 -28 -7 0 -7
-85 -21 -147 -23 -22 0 -39 -5 -36 -10 3 -5 -8 -7 -26 -4 -17 2 -31 2 -31 -2
0 -4 -12 -8 -27 -8 -28 -2 -49 -5 -108 -16 -38 -8 -80 -14 -130 -21 -22 -3
-49 -8 -61 -10 -12 -3 -39 -7 -60 -10 -21 -3 -61 -10 -89 -15 -27 -5 -70 -11
-95 -15 -25 -3 -56 -7 -69 -10 -12 -2 -44 -7 -70 -10 -25 -4 -57 -9 -71 -11
-14 -2 -38 -6 -55 -9 -125 -21 -174 -31 -178 -35 -2 -3 -7 -18 -11 -35 -5 -22
-4 -26 4 -15 9 13 10 13 11 0 3 -23 5 -34 12 -50 4 -8 8 -27 11 -42 3 -15 7
-32 10 -37 4 -5 0 -12 -6 -14 -10 -4 -10 -6 0 -6 7 -1 10 -5 7 -11 -3 -5 -1
-10 6 -10 6 0 9 -8 6 -20 -3 -11 -1 -20 3 -20 5 0 7 -11 5 -25 -1 -14 1 -25 5
-25 9 0 21 -40 12 -40 -4 0 -56 -9 -115 -20 -59 -11 -129 -22 -155 -26 -26 -3
-50 -8 -54 -10 -3 -2 18 -100 48 -216 30 -117 54 -216 54 -219 0 -6 -80 -24
-155 -34 -16 -2 -59 -9 -95 -15 -36 -5 -75 -12 -87 -13 -12 -2 -25 -5 -27 -8
-3 -3 2 -32 11 -64 8 -33 16 -64 17 -70 1 -5 5 -19 9 -30 3 -11 8 -31 11 -45
3 -14 48 -194 101 -400 53 -206 98 -383 100 -393 2 -10 7 -27 10 -37 3 -10 7
-27 9 -37 2 -10 12 -47 21 -83 9 -36 18 -72 20 -80 2 -8 15 -60 30 -115 15
-55 29 -109 31 -120 9 -45 14 -66 48 -195 53 -203 236 -921 242 -950 2 -14 9
-39 15 -56 5 -17 11 -40 13 -50 2 -10 18 -75 36 -144 18 -69 33 -132 35 -140
14 -58 127 -495 129 -497 2 -3 320 62 817 167 103 22 200 42 215 44 16 3 106
22 199 41 94 20 180 38 193 41 12 2 32 6 45 8 23 5 260 55 287 61 47 11 159
34 185 38 17 3 64 13 105 22 41 9 91 18 110 21 19 3 38 8 41 10 3 2 21 6 40 9
30 6 233 48 439 92 41 9 82 17 90 18 8 1 29 5 45 8 17 4 40 9 53 12 13 2 31 6
40 9 9 3 31 8 47 10 78 14 87 18 79 34 -8 19 -59 158 -110 301 -19 52 -32 97
-29 100 3 2 16 6 28 8 12 2 47 8 77 15 30 6 57 12 60 13 3 0 58 11 123 25 97
20 117 27 111 39 -19 48 -104 294 -104 303 0 6 9 8 20 5 13 -3 18 -1 13 6 -4
6 0 8 9 4 9 -3 20 -1 25 4 5 5 32 11 60 12 28 1 49 5 47 8 -2 4 22 11 53 18
42 8 60 8 70 0 11 -9 12 -8 7 4 -4 12 -1 15 14 12 47 -9 44 16 -22 206 -35
101 -76 216 -90 254 -15 39 -27 71 -27 72 0 2 -2 8 -4 15 -29 82 -118 337
-135 383 -54 153 -156 444 -202 575 -27 80 -54 154 -58 165 -5 11 -23 61 -40
110 -52 149 -90 257 -112 312 -11 29 -18 60 -14 68 3 9 2 14 -3 11 -4 -3 -13
9 -18 27 -6 18 -25 70 -41 117 -52 145 -132 372 -158 450 -14 41 -30 84 -35
95 -5 11 -44 121 -87 245 l-79 225 -34 1 c-19 0 -50 -3 -69 -7z m67 -69 c-3
-11 -1 -20 4 -20 10 0 27 -38 32 -69 1 -9 6 -21 10 -28 4 -6 8 -23 9 -37 1
-14 6 -26 11 -26 5 0 7 -9 4 -20 -3 -11 -1 -18 4 -15 4 3 12 -9 17 -27 7 -25
5 -38 -7 -53 -10 -13 -10 -16 -1 -7 19 17 33 15 26 -3 -3 -8 -1 -15 4 -15 8 0
26 -57 22 -72 -1 -5 3 -8 9 -8 6 0 9 -6 6 -14 -3 -7 -2 -17 3 -22 11 -11 70
-174 63 -174 -3 0 -1 -6 4 -12 6 -7 13 -21 17 -32 5 -14 3 -17 -11 -12 -13 5
-12 2 4 -11 12 -10 23 -27 25 -38 2 -11 6 -22 10 -25 4 -3 9 -15 11 -25 1 -11
7 -26 11 -34 6 -9 5 -12 -2 -7 -6 3 -14 1 -18 -5 -4 -7 -3 -9 2 -6 6 3 16 2
24 -4 12 -6 12 -9 2 -9 -10 0 -10 -4 2 -16 14 -13 18 -28 15 -50 0 -4 3 -10 9
-13 12 -8 33 -71 26 -82 -3 -5 0 -9 6 -9 6 0 8 -4 5 -10 -3 -5 -1 -10 6 -10 6
0 9 -8 6 -20 -3 -13 -1 -18 6 -13 6 4 8 0 4 -10 -3 -10 -2 -17 3 -17 6 0 9 -3
8 -7 -1 -5 4 -21 11 -37 6 -16 13 -38 16 -50 2 -11 4 -22 6 -23 1 -2 2 -6 3
-10 1 -5 7 -18 14 -30 8 -15 9 -23 2 -23 -5 0 -10 -4 -10 -10 0 -5 3 -9 8 -9
19 3 25 -2 12 -11 -13 -8 -13 -10 1 -10 10 0 19 -12 24 -32 4 -18 9 -35 10
-38 1 -3 5 -12 8 -20 22 -54 34 -101 25 -106 -5 -3 0 -15 12 -26 13 -12 20
-28 17 -39 -3 -11 -1 -17 3 -14 10 6 42 -84 34 -96 -3 -5 0 -9 6 -9 6 0 9 -4
6 -9 -4 -5 0 -11 6 -14 10 -3 10 -9 1 -25 -9 -16 -10 -23 -1 -28 7 -4 8 -3 4
4 -4 7 -3 12 2 12 10 0 50 -111 43 -119 -1 -2 2 -7 9 -11 6 -4 12 -21 12 -38
1 -18 5 -29 11 -25 6 3 7 1 3 -5 -3 -6 -1 -14 5 -17 5 -4 8 -13 5 -21 -3 -8
-2 -14 3 -14 11 0 32 -71 24 -83 -4 -6 -1 -7 7 -2 10 6 12 3 8 -13 -4 -13 0
-23 8 -26 8 -3 14 -9 13 -13 -3 -15 14 -73 22 -79 5 -3 9 -15 9 -28 0 -12 3
-26 8 -30 4 -4 7 -11 8 -14 0 -4 6 -20 12 -35 7 -16 10 -33 6 -38 -3 -5 0 -9
7 -9 7 0 9 -3 6 -6 -3 -4 0 -16 8 -28 8 -11 15 -25 15 -31 0 -5 -4 -4 -9 3 -7
11 -9 10 -14 -3 -4 -9 -3 -14 2 -10 12 7 43 -24 36 -35 -3 -4 1 -20 9 -35 8
-15 12 -34 9 -43 -4 -10 -2 -13 5 -8 16 10 15 -7 0 -23 -11 -10 -10 -11 5 -6
16 7 21 -3 20 -43 -1 -6 4 -12 10 -12 6 0 7 -3 4 -7 -4 -3 -2 -13 5 -20 9 -11
9 -17 -3 -24 -11 -7 -10 -9 5 -9 12 0 16 -5 13 -14 -3 -8 -2 -16 3 -18 4 -2
10 -12 12 -23 1 -11 8 -23 13 -27 6 -5 4 -12 -5 -18 -14 -9 -7 -15 14 -11 5 1
6 -5 3 -14 -4 -8 -2 -15 4 -15 6 0 7 -4 4 -10 -3 -5 -1 -10 5 -10 6 0 9 -4 5
-9 -3 -5 -1 -12 5 -16 5 -3 10 -11 10 -16 0 -6 -4 -7 -10 -4 -5 3 -10 1 -10
-4 0 -6 7 -11 15 -11 13 0 19 -19 18 -57 -1 -7 3 -11 7 -8 4 2 12 -11 18 -30
7 -26 7 -34 -1 -29 -7 3 -4 -1 7 -10 11 -9 16 -22 12 -31 -3 -9 -2 -14 3 -10
7 4 20 -29 26 -65 0 -3 4 -11 9 -18 5 -8 4 -18 -1 -23 -9 -9 -79 -23 -125 -24
-14 0 -24 -3 -21 -7 2 -5 -5 -9 -16 -9 -12 -1 -24 -2 -28 -3 -30 -8 -73 -17
-103 -22 -19 -3 -44 -8 -55 -10 -11 -2 -51 -10 -90 -19 -38 -9 -75 -13 -83
-10 -7 2 -11 1 -8 -4 4 -7 -35 -16 -144 -35 -8 -2 -26 -6 -40 -9 -14 -4 -36
-9 -50 -11 -14 -3 -38 -8 -55 -11 -16 -3 -50 -10 -75 -16 -25 -5 -57 -11 -71
-13 -13 -1 -29 -5 -35 -8 -5 -4 -30 -9 -55 -12 -25 -3 -58 -10 -72 -15 -15 -6
-27 -8 -27 -5 0 2 -9 0 -20 -6 -15 -8 -20 -8 -20 2 0 9 -2 10 -8 2 -4 -7 -23
-14 -42 -17 -19 -3 -78 -15 -130 -27 -52 -12 -108 -23 -125 -25 -16 -2 -30 -4
-30 -5 0 -2 -33 -10 -60 -15 -11 -2 -31 -6 -45 -9 -46 -10 -275 -57 -292 -59
-10 -2 -21 -6 -24 -10 -4 -4 -14 -1 -22 6 -13 9 -14 9 -8 -1 5 -8 0 -12 -13
-12 -12 0 -22 1 -23 2 -2 1 -12 -4 -24 -10 -16 -8 -24 -8 -34 1 -10 9 -11 9
-6 0 4 -8 2 -13 -6 -14 -14 -1 -17 -1 -100 -18 -32 -7 -63 -9 -69 -5 -8 5 -9
3 -4 -5 5 -9 1 -12 -11 -10 -11 1 -26 -1 -34 -4 -8 -3 -28 -8 -45 -11 -16 -3
-138 -27 -270 -55 -132 -27 -243 -47 -247 -45 -5 3 -8 1 -8 -4 0 -5 -12 -9
-26 -9 -20 0 -25 3 -21 18 3 11 2 17 -2 15 -6 -4 -50 156 -97 347 -2 9 -6 26
-9 37 -3 11 -7 28 -9 37 -2 10 -29 115 -59 233 -31 118 -90 348 -131 510 -41
162 -93 366 -115 454 -23 87 -39 162 -36 166 3 5 2 10 -2 12 -7 3 -70 233 -93
338 -5 19 -23 91 -40 160 -18 69 -34 132 -35 140 -1 8 -5 22 -8 30 -7 17 -89
339 -101 395 -3 11 -14 54 -25 95 -46 166 -102 412 -96 418 3 4 24 7 45 7 21
0 36 3 34 6 -2 4 10 6 27 5 16 -1 32 1 35 5 2 4 17 6 34 5 16 -1 32 3 35 8 3
7 7 6 11 -3 4 -8 9 -9 13 -3 6 10 72 23 129 26 12 0 22 4 22 7 0 3 22 5 49 5
27 -1 47 2 44 7 -2 4 5 7 17 7 14 0 19 -4 15 -12 -4 -7 0 -6 7 4 9 10 27 16
50 14 20 0 34 2 32 6 -3 5 9 9 25 9 29 1 48 4 54 8 4 4 92 13 134 15 22 0 39
4 36 9 -4 7 9 8 89 11 20 0 34 3 32 6 -3 2 25 10 63 16 50 8 72 8 82 0 11 -8
13 -8 7 2 -7 12 -4 13 59 17 11 1 30 5 43 9 14 5 29 3 38 -5 12 -10 13 -9 9 4
-5 12 1 15 29 13 20 -1 36 3 37 9 0 5 3 4 6 -2 2 -7 9 -13 14 -13 6 0 7 5 4
10 -3 6 4 10 17 11 13 0 36 3 51 5 22 4 27 2 21 -8 -4 -7 2 -5 13 5 23 20 49
22 56 5 3 -8 6 -6 6 4 1 15 8 17 43 14 27 -3 37 -1 27 5 -14 9 -4 10 98 13 17
1 29 4 27 8 -4 6 98 22 149 23 15 0 27 2 27 6 0 3 6 6 13 7 63 5 104 11 117
15 34 12 70 14 70 3 0 -8 2 -8 8 0 11 16 37 23 52 14 8 -5 23 -2 39 8 20 14
24 14 16 2 -7 -12 -6 -13 6 -3 8 6 38 14 67 17 29 3 56 8 61 10 6 4 61 12 146
21 17 2 30 4 30 6 0 1 12 2 27 3 15 1 29 4 32 7 3 3 22 6 42 7 32 3 36 0 31
-18z m-2654 -773 c-4 -7 0 -6 10 2 9 7 17 10 18 5 1 -13 6 -34 18 -72 9 -30 8
-33 -7 -28 -15 5 -15 5 1 -8 9 -7 24 -39 32 -70 8 -31 22 -82 30 -113 9 -32
18 -71 21 -88 8 -40 10 -47 19 -68 4 -10 8 -33 9 -52 0 -18 4 -31 9 -28 4 2 8
-7 8 -21 2 -28 3 -33 12 -56 16 -41 47 -173 42 -181 -4 -5 -2 -9 3 -9 15 0 21
-47 8 -61 -8 -9 -8 -10 1 -5 6 3 14 2 18 -4 3 -5 1 -10 -4 -10 -6 0 -11 -5
-11 -11 0 -5 5 -7 12 -3 8 5 9 0 6 -14 -4 -12 -3 -20 2 -17 10 6 23 -62 14
-77 -5 -7 -3 -8 6 -3 10 6 12 4 7 -8 -3 -9 -2 -19 4 -22 5 -4 9 -12 8 -18 -1
-7 1 -19 4 -27 13 -32 34 -126 31 -143 -1 -9 2 -17 7 -17 5 0 8 -3 7 -7 -1 -5
5 -33 14 -63 9 -30 19 -68 21 -85 3 -16 10 -43 16 -59 9 -22 8 -32 -1 -44 -9
-11 -9 -13 -1 -9 6 4 14 3 18 -3 3 -5 0 -10 -7 -10 -9 0 -9 -3 2 -10 14 -9 7
-14 -13 -11 -5 1 -6 -3 -2 -8 3 -6 13 -7 23 -4 9 3 14 3 10 -2 -4 -4 -2 -15 5
-23 10 -13 9 -15 -11 -10 -12 4 -20 2 -16 -3 3 -5 11 -9 19 -9 18 0 38 -90 23
-108 -8 -9 -7 -11 6 -6 12 5 16 0 17 -17 1 -13 1 -28 0 -33 -1 -5 2 -12 6 -15
5 -3 14 -26 20 -51 9 -34 9 -47 0 -52 -8 -5 -5 -8 8 -9 l20 0 -20 -9 c-19 -8
-19 -9 -1 -9 11 -1 16 -4 13 -8 -4 -3 -1 -13 6 -21 10 -13 9 -14 -3 -7 -13 7
-13 6 -2 -7 22 -27 54 -168 42 -183 -8 -10 -8 -15 1 -21 8 -4 9 -3 5 4 -4 7
-2 12 5 12 6 0 9 -8 6 -20 -3 -11 -2 -20 3 -20 4 0 10 -11 12 -25 3 -14 1 -22
-4 -18 -6 3 -2 -6 7 -21 10 -15 15 -37 13 -51 -3 -13 -1 -22 3 -19 5 3 10 0
10 -5 1 -6 2 -14 3 -18 1 -5 6 -26 11 -48 10 -48 9 -44 34 -124 16 -52 18 -68
8 -80 -9 -12 -9 -13 1 -7 6 4 13 2 13 -3 4 -35 2 -46 -10 -43 -7 1 -10 -2 -6
-7 3 -6 11 -8 18 -5 8 3 13 -5 15 -21 1 -18 -2 -24 -10 -19 -7 4 -8 3 -4 -5 4
-6 11 -9 16 -6 4 3 11 -2 14 -11 5 -12 2 -15 -11 -10 -16 5 -16 5 -2 -7 18
-14 62 -174 52 -190 -3 -5 -1 -7 4 -4 15 9 23 -39 9 -54 -8 -9 -8 -10 1 -5 6
3 14 2 18 -4 3 -5 0 -10 -7 -10 -9 0 -10 -2 -2 -8 14 -8 35 -82 28 -94 -3 -4
1 -8 8 -9 7 0 25 -2 40 -3 14 -1 24 2 22 6 -3 4 3 9 13 9 10 1 29 2 43 3 14 1
31 5 38 9 6 5 17 5 22 2 6 -3 10 -2 10 4 0 6 15 9 34 7 20 -1 32 2 29 7 -4 6
5 8 20 5 15 -3 24 -2 22 2 -2 4 26 12 63 18 37 6 81 14 97 18 17 3 36 7 43 7
6 0 12 3 12 6 0 3 10 7 23 7 40 3 92 12 110 19 10 4 34 8 53 9 19 0 34 5 34 9
0 4 6 7 13 6 6 -2 30 3 53 9 22 7 56 14 75 16 19 3 34 5 34 6 0 1 11 3 25 6
56 10 77 14 110 22 19 5 45 8 57 7 12 -1 20 2 17 7 -3 4 6 9 20 9 14 1 29 2
34 4 33 9 90 18 104 17 10 0 20 3 23 9 4 5 18 9 33 9 15 0 52 7 81 15 43 11
58 12 70 2 12 -9 13 -9 8 0 -8 13 25 25 75 27 15 1 28 4 28 9 0 12 35 8 49 -5
10 -11 11 -9 5 6 -6 16 -4 18 19 13 14 -4 27 -3 29 3 2 5 19 10 38 11 19 2 41
7 48 12 8 6 12 5 12 -4 0 -11 2 -11 8 -2 4 7 26 15 47 18 58 9 68 11 88 20 10
4 21 5 24 1 3 -3 11 -2 18 4 6 5 28 11 48 13 20 2 40 7 44 10 11 12 41 8 46
-5 3 -8 6 -5 6 6 1 15 7 17 35 14 19 -2 33 -1 31 3 -5 7 127 34 167 34 14 0
24 3 22 7 -5 8 72 21 85 14 5 -3 11 -1 13 5 2 6 24 12 50 12 25 1 44 6 41 11
-4 5 6 6 21 2 18 -4 25 -3 21 4 -3 5 -2 10 4 10 15 0 27 -25 75 -161 43 -117
43 -119 22 -124 -38 -9 -310 -65 -341 -71 -16 -3 -58 -11 -93 -19 -34 -8 -74
-17 -90 -20 -15 -3 -36 -7 -47 -9 -11 -3 -67 -14 -125 -26 -124 -25 -137 -28
-170 -35 -38 -8 -53 -11 -215 -45 -82 -17 -159 -33 -170 -36 -11 -2 -32 -6
-47 -9 -14 -3 -80 -17 -145 -31 -65 -14 -127 -27 -138 -28 -11 -2 -33 -6 -50
-10 -16 -3 -39 -8 -50 -10 -11 -2 -105 -22 -210 -45 -104 -22 -206 -43 -225
-46 -19 -4 -39 -8 -45 -9 -27 -6 -123 -26 -145 -30 -14 -2 -56 -11 -95 -20
-38 -10 -86 -19 -105 -22 -19 -3 -73 -14 -119 -25 -47 -11 -101 -22 -120 -25
-20 -3 -65 -12 -100 -20 -35 -9 -67 -11 -71 -7 -6 7 -22 64 -35 123 -3 14 -96
377 -190 745 -20 77 -38 147 -39 155 -2 8 -12 44 -21 80 -9 36 -19 73 -21 83
-7 30 -11 47 -74 292 -33 132 -72 281 -85 330 -13 50 -26 101 -29 115 -4 21
-37 152 -137 540 -11 41 -21 83 -24 93 -11 48 -101 398 -132 517 -19 74 -36
142 -38 150 -1 8 -8 35 -15 60 -7 25 -13 52 -15 60 -2 8 -6 27 -10 41 l-6 26
118 19 c154 25 155 25 146 11z m-189 -517 c5 -23 23 -92 121 -475 105 -408
145 -566 149 -587 2 -13 14 -58 26 -100 11 -43 23 -85 24 -95 2 -10 9 -38 16
-63 7 -25 14 -52 15 -60 2 -8 29 -114 60 -235 31 -121 94 -371 141 -555 47
-184 103 -405 126 -490 22 -85 41 -159 42 -165 1 -5 11 -45 21 -88 17 -70 21
-78 39 -72 22 6 271 60 316 68 49 9 466 96 510 107 25 6 59 13 75 16 17 2 73
14 125 25 52 11 115 24 140 29 25 5 56 12 70 15 14 3 36 7 50 10 14 3 36 7 50
10 14 4 38 9 54 11 16 3 155 32 310 65 154 33 292 61 306 64 14 2 36 7 50 10
14 3 48 10 75 15 28 6 61 13 75 16 14 3 36 7 50 10 14 3 66 14 115 24 97 21
151 31 175 34 10 1 33 -51 77 -174 34 -96 63 -180 63 -186 0 -6 -46 -21 -102
-32 -57 -11 -224 -46 -373 -77 -148 -31 -279 -58 -290 -61 -46 -9 -72 -14
-104 -19 -19 -3 -37 -8 -41 -10 -3 -2 -20 -6 -36 -9 -45 -9 -62 -12 -348 -71
-148 -31 -280 -58 -295 -61 -23 -4 -216 -45 -278 -59 -13 -3 -35 -7 -50 -10
-16 -3 -50 -10 -78 -16 -27 -6 -59 -12 -70 -15 -11 -2 -76 -15 -145 -29 -69
-15 -136 -29 -150 -31 -14 -3 -45 -10 -70 -15 -25 -6 -55 -13 -67 -15 -13 -2
-33 -6 -45 -8 -13 -2 -68 -14 -123 -26 -118 -26 -102 -23 -193 -40 -39 -7 -74
-11 -75 -9 -2 2 -27 96 -55 209 -29 113 -84 329 -123 480 -39 151 -72 282 -74
290 -1 8 -40 159 -85 335 -45 176 -83 327 -85 335 -12 54 -28 116 -70 275 -26
99 -48 187 -50 195 -2 8 -31 125 -65 260 -60 235 -78 307 -85 340 -2 8 -4 15
-5 15 -1 0 -3 7 -5 15 -2 8 -31 123 -65 255 -33 132 -63 247 -65 255 -1 8 -10
44 -20 79 -9 35 -13 67 -8 72 4 4 33 11 63 14 30 4 98 15 150 24 52 10 98 15
102 12 4 -3 9 -17 12 -31z"/>
<path d="M3489 4843 c-13 -16 -12 -17 4 -4 9 7 17 15 17 17 0 8 -8 3 -21 -13z"/>
<path d="M3536 4722 c-3 -5 1 -9 9 -9 8 0 12 4 9 9 -3 4 -7 8 -9 8 -2 0 -6 -4
-9 -8z"/>
<path d="M3699 4298 c-5 -18 -6 -38 -1 -34 7 8 12 36 6 36 -2 0 -4 -1 -5 -2z"/>
<path d="M3710 4239 c0 -5 5 -7 10 -4 6 3 10 8 10 11 0 2 -4 4 -10 4 -5 0 -10
-5 -10 -11z"/>
<path d="M3107 4086 c-25 -28 -64 -71 -86 -94 -37 -39 -41 -49 -41 -95 0 -49
-8 -66 -143 -290 -78 -131 -153 -257 -166 -280 -13 -23 -39 -65 -57 -94 -19
-28 -34 -54 -34 -57 0 -4 -11 -23 -23 -44 -13 -20 -31 -49 -40 -64 l-17 -27
-58 23 -58 23 -14 -31 c-8 -17 -15 -54 -16 -81 0 -28 -9 -67 -19 -88 -20 -43
-82 -99 -137 -125 -33 -15 -55 -46 -193 -274 -152 -250 -156 -259 -152 -303 3
-25 10 -52 16 -59 6 -7 8 -16 4 -20 -4 -4 0 -4 9 -1 14 5 16 2 13 -15 -2 -13
-2 -20 2 -17 7 8 33 -18 33 -33 0 -6 5 -8 10 -5 6 3 10 2 10 -4 0 -5 9 -13 20
-16 11 -4 18 -11 15 -16 -4 -5 3 -9 14 -9 12 0 21 -5 21 -11 0 -5 4 -8 9 -4 5
3 12 1 16 -5 4 -6 11 -7 17 -4 8 5 9 1 4 -12 -5 -15 -4 -16 5 -7 12 12 42 6
34 -8 -6 -9 18 -5 49 7 15 6 17 4 11 -7 -6 -11 -5 -11 5 -2 7 6 19 9 28 6 10
-4 13 -2 8 5 -4 7 -1 15 8 18 9 3 12 12 9 21 -4 10 -2 14 4 10 6 -4 14 0 17 9
4 10 2 13 -7 9 -6 -4 -5 -1 4 7 9 7 17 18 17 23 1 6 6 10 11 10 5 0 13 4 18 9
5 5 3 6 -4 2 -19 -11 -16 5 5 21 10 9 11 11 2 7 -10 -5 -9 -1 3 14 11 12 16
26 11 33 -4 8 -3 10 4 5 7 -4 12 -2 12 4 0 6 5 8 12 4 6 -4 8 -3 5 4 -9 14 3
43 14 36 5 -3 6 1 4 8 -3 8 4 24 15 36 12 12 19 26 16 31 -3 5 1 11 9 15 8 3
15 14 15 25 0 11 9 25 20 31 11 6 20 17 20 25 0 20 38 86 59 102 15 12 15 13
-1 7 -13 -4 -15 -1 -11 15 3 11 10 18 15 15 6 -4 5 2 -1 14 -14 26 -14 35 0
26 8 -4 8 -1 1 13 -6 11 -7 25 -2 33 6 9 5 17 -3 22 -8 5 -7 8 4 8 12 0 16 8
13 34 -2 28 1 34 14 29 9 -4 13 -2 9 4 -8 13 27 55 38 45 5 -4 5 1 2 11 -4 11
-3 16 3 12 6 -3 13 1 16 9 3 9 10 13 15 10 14 -8 49 6 46 19 -1 7 4 11 11 9 8
-1 11 2 6 9 -3 6 -1 15 5 19 10 5 9 11 -2 22 -9 9 -12 20 -7 28 6 9 -3 25 -27
48 -26 25 -32 36 -23 42 7 4 10 12 6 18 -3 6 -1 14 5 18 7 4 9 3 5 -4 -3 -6
-2 -13 3 -17 6 -3 8 6 5 21 -4 20 -1 25 10 21 10 -4 14 0 11 13 -2 10 3 24 11
30 7 7 12 16 9 20 -3 5 3 15 13 22 11 7 18 21 16 30 -1 11 3 15 12 11 9 -3 14
2 14 16 0 12 4 21 8 21 6 0 32 50 36 71 0 3 9 14 19 24 10 9 16 24 13 31 -3 8
0 11 10 7 10 -4 12 0 7 13 -4 12 -3 15 5 10 8 -5 12 0 12 13 0 11 5 23 12 27
7 5 8 3 3 -6 -5 -9 -4 -11 4 -6 6 4 9 12 5 17 -3 6 2 17 12 25 11 9 13 13 7 9
-7 -3 -13 -1 -13 4 0 6 5 11 11 11 5 0 7 5 4 10 -4 6 -1 9 7 8 7 -2 12 5 12
14 -1 10 2 15 7 12 5 -3 10 0 10 5 1 6 2 16 3 21 0 6 7 14 14 19 7 4 14 17 15
29 0 11 4 19 7 17 10 -6 27 21 24 38 -1 9 3 20 9 24 7 5 18 20 26 35 8 15 17
25 22 23 4 -3 5 5 2 17 -4 19 -3 20 6 8 9 -12 11 -11 11 8 0 13 4 20 10 17 6
-3 10 -1 10 4 0 6 6 10 13 9 6 -2 11 3 9 11 -2 10 1 12 10 5 9 -7 20 -3 38 14
22 22 22 24 5 19 -18 -7 -19 -6 -3 6 10 8 15 17 11 20 -3 4 -1 7 5 7 6 0 9 7
5 17 -5 12 -3 14 8 8 12 -8 12 -6 0 8 -10 13 -10 17 -1 17 8 0 10 8 7 21 -5
17 -3 18 9 8 12 -10 15 -10 12 2 -2 8 -7 17 -13 21 -6 5 -5 8 2 8 7 0 18 10
24 23 12 21 11 21 -6 7 -17 -14 -17 -14 -5 7 8 12 19 19 25 16 5 -4 1 4 -10
17 -11 13 -14 20 -6 15 10 -6 12 -4 5 6 -5 8 -7 21 -6 29 1 9 -17 26 -41 41
l-44 27 -46 -52z"/>
<path d="M1787 3954 c-1 -1 -22 -4 -46 -7 -55 -6 -78 -36 -49 -65 7 -7 8 -12
4 -12 -5 0 -3 -7 4 -15 11 -13 10 -14 -6 -9 -18 6 -17 5 1 -9 24 -20 39 -22
30 -4 -4 6 -1 5 7 -4 7 -9 25 -15 40 -15 14 1 24 -2 22 -6 -2 -3 0 -9 6 -13 5
-3 10 0 10 7 0 11 2 11 9 0 4 -7 18 -14 29 -15 12 -1 22 -4 22 -7 0 -5 18 -9
58 -12 6 -1 12 -5 12 -10 0 -4 7 -8 15 -8 9 0 15 -10 16 -22 4 -82 -13 -134
-57 -188 -32 -38 -37 -38 -208 19 -91 30 -118 36 -122 26 -3 -7 -1 -22 4 -32
5 -10 7 -24 5 -30 -3 -7 1 -13 9 -13 10 0 9 -3 -2 -10 -13 -8 -13 -10 1 -10
17 0 34 -27 30 -45 -2 -5 1 -7 4 -3 4 4 19 -5 34 -21 14 -15 36 -33 49 -40 12
-7 20 -17 16 -23 -4 -6 -3 -8 3 -5 6 4 21 -2 33 -13 25 -22 35 -26 25 -10 -11
18 4 11 26 -12 12 -13 19 -17 15 -10 -4 6 -2 12 3 12 6 0 11 -4 11 -9 0 -6 9
-8 20 -6 11 2 20 0 20 -6 0 -5 5 -9 11 -9 5 0 7 5 3 11 -4 8 0 8 15 0 11 -6
32 -9 46 -7 13 3 28 0 31 -6 5 -7 12 -4 21 7 7 11 13 13 13 7 0 -7 5 -12 11
-12 5 0 8 4 5 8 -3 5 1 9 9 9 8 0 15 -5 15 -10 0 -5 7 -4 16 4 13 10 17 10 25
-2 7 -12 9 -12 9 1 0 13 1 13 10 0 5 -8 10 -10 10 -5 0 6 7 1 15 -9 8 -11 15
-15 15 -8 0 6 7 9 15 6 8 -4 12 -10 9 -15 -3 -5 2 -6 10 -3 9 3 16 1 16 -6 0
-6 4 -9 9 -6 4 3 16 -3 26 -14 9 -10 23 -16 31 -13 8 3 14 0 14 -6 0 -6 6 -11
14 -11 8 0 16 -7 20 -15 3 -8 12 -12 21 -9 8 3 15 2 15 -4 0 -5 13 -15 30 -22
16 -7 28 -16 25 -20 -3 -4 3 -7 13 -6 9 0 16 -4 15 -10 -1 -6 3 -11 10 -11 7
0 17 -2 22 -3 21 -5 46 0 41 9 -3 5 1 12 9 15 8 3 15 9 14 13 -4 21 2 33 12
27 7 -4 10 -1 7 7 -3 8 1 20 9 27 7 8 11 18 8 23 -4 5 2 9 11 9 10 0 14 3 11
7 -4 3 1 12 11 20 10 9 11 12 2 7 -10 -5 -9 0 4 14 11 12 16 22 11 22 -4 0 -2
7 5 15 11 13 10 14 -2 10 -12 -5 -14 0 -11 19 4 18 -1 27 -19 37 -37 19 -217
139 -278 183 -69 52 -90 76 -117 146 -71 175 -151 231 -331 235 -51 0 -93 0
-95 -1z"/>
<path d="M3814 3918 c-4 -7 -4 -10 1 -6 4 4 15 2 24 -5 14 -11 14 -10 2 6 -16
20 -18 21 -27 5z"/>
<path d="M3870 3720 c0 -4 7 -7 15 -6 23 3 26 12 5 13 -11 1 -20 -2 -20 -7z"/>
<path d="M3973 3489 c-2 -23 3 -25 10 -4 4 8 3 16 -1 19 -4 3 -9 -4 -9 -15z"/>
<path d="M2814 3246 c-3 -9 -10 -14 -14 -11 -4 3 -7 -1 -6 -8 2 -18 -77 -157
-89 -157 -15 0 -12 -40 4 -69 8 -14 8 -21 2 -17 -6 4 -11 3 -11 -3 0 -6 10
-16 23 -22 12 -7 27 -19 34 -28 11 -15 15 -17 49 -20 8 0 12 -5 9 -11 -3 -5 3
-10 14 -10 12 0 21 -7 21 -15 0 -8 3 -14 8 -13 13 4 52 -13 48 -21 -3 -4 10
-13 27 -21 18 -8 40 -23 50 -34 10 -12 16 -16 13 -10 -3 6 1 11 8 11 8 0 12
-7 8 -15 -3 -10 -1 -13 6 -8 7 4 12 2 12 -4 0 -6 11 -15 25 -22 13 -6 22 -16
18 -21 -4 -6 0 -8 11 -4 9 4 15 3 12 -1 -3 -5 13 -26 34 -46 35 -33 46 -58 41
-89 -1 -5 3 -6 9 -2 6 3 10 -3 10 -16 0 -12 8 -28 18 -36 9 -8 11 -12 5 -8 -9
4 -11 1 -7 -9 3 -9 10 -16 15 -16 5 0 9 -7 9 -15 0 -7 6 -18 13 -22 8 -4 17
-16 20 -26 4 -10 11 -15 17 -12 5 3 10 -1 10 -9 0 -9 5 -16 11 -16 5 0 7 -5 3
-12 -5 -7 -3 -8 5 -4 7 5 19 0 27 -10 9 -11 12 -12 8 -4 -6 12 -4 12 12 -1 29
-24 48 -34 40 -21 -5 8 -2 10 8 6 9 -3 14 -10 11 -14 -3 -5 6 -7 21 -4 19 3
24 1 18 -8 -5 -8 -1 -7 11 2 11 9 16 10 11 3 -9 -15 -5 -16 27 -4 20 8 27 6
31 -6 5 -11 10 -13 20 -4 7 6 16 8 19 4 4 -3 13 0 22 7 12 10 15 10 15 0 0 -9
4 -9 17 1 15 12 16 12 8 -1 -8 -13 -6 -13 8 -2 9 8 21 11 27 7 5 -3 10 -1 10
5 0 8 6 8 20 0 15 -8 20 -8 18 2 -2 6 3 13 10 14 6 1 15 2 18 3 4 0 1 7 -5 15
-9 11 -9 16 0 22 8 5 9 3 4 -6 -5 -9 -4 -11 4 -6 8 5 7 13 -3 28 -8 11 -12 26
-10 33 4 9 -35 26 -123 54 -173 57 -185 62 -179 76 2 7 2 16 -2 20 -11 11 -10
125 1 118 6 -4 8 0 4 10 -3 10 -2 17 3 17 5 0 6 7 3 17 -4 9 -2 14 3 10 6 -3
16 3 23 15 10 16 10 19 -1 13 -7 -3 -5 0 5 8 9 8 17 20 17 28 0 8 6 6 16 -7 8
-10 13 -13 9 -6 -7 14 29 12 42 -3 5 -4 1 -5 -7 0 -12 7 -13 6 -2 -6 11 -12
14 -12 22 1 8 12 10 12 10 1 0 -8 6 -11 16 -7 8 3 12 2 9 -4 -6 -10 -2 -12 38
-13 12 0 26 -7 31 -15 7 -12 10 -12 17 -1 6 10 9 11 9 2 0 -7 9 -13 21 -13 13
0 18 -4 13 -12 -5 -9 -2 -9 9 1 9 7 17 9 17 4 0 -5 13 -9 29 -9 17 0 28 3 25
8 -3 5 -9 6 -13 3 -5 -2 -7 11 -5 31 2 31 -5 42 -69 108 -113 115 -223 160
-371 150 -118 -8 -121 -7 -199 30 -62 30 -225 125 -310 181 -24 16 -27 16 -33
1z m317 -563 c13 -16 12 -17 -3 -4 -17 13 -22 21 -14 21 2 0 10 -8 17 -17z"/>
<path d="M4074 3216 c1 -8 5 -18 8 -22 4 -3 5 1 4 10 -1 8 -5 18 -8 22 -4 3
-5 -1 -4 -10z"/>
<path d="M4215 2801 c-3 -5 -2 -12 3 -15 5 -3 9 1 9 9 0 17 -3 19 -12 6z"/>
<path d="M4255 2700 c3 -5 8 -10 11 -10 2 0 4 5 4 10 0 6 -5 10 -11 10 -5 0
-7 -4 -4 -10z"/>
<path d="M4270 2636 c0 -2 8 -10 18 -17 15 -13 16 -12 3 4 -13 16 -21 21 -21
13z"/>
<path d="M4416 2242 c-3 -5 1 -9 9 -9 8 0 12 4 9 9 -3 4 -7 8 -9 8 -2 0 -6 -4
-9 -8z"/>
<path d="M870 4026 c0 -2 7 -7 16 -10 8 -3 12 -2 9 4 -6 10 -25 14 -25 6z"/>
<path d="M909 3877 c6 -8 9 -16 6 -19 -3 -2 2 -5 10 -5 13 0 13 3 -2 19 -19
21 -31 25 -14 5z"/>
<path d="M950 3676 c0 -2 8 -10 18 -17 15 -13 16 -12 3 4 -13 16 -21 21 -21
13z"/>
<path d="M1016 3447 c3 -10 9 -15 12 -12 3 3 0 11 -7 18 -10 9 -11 8 -5 -6z"/>
<path d="M1115 3120 c3 -5 8 -10 11 -10 2 0 4 5 4 10 0 6 -5 10 -11 10 -5 0
-7 -4 -4 -10z"/>
<path d="M1116 3038 c3 -5 10 -6 15 -3 13 9 11 12 -6 12 -8 0 -12 -4 -9 -9z"/>
<path d="M1210 2740 c0 -5 5 -10 11 -10 5 0 7 5 4 10 -3 6 -8 10 -11 10 -2 0
-4 -4 -4 -10z"/>
<path d="M1230 2620 c0 -5 5 -10 11 -10 5 0 7 5 4 10 -3 6 -8 10 -11 10 -2 0
-4 -4 -4 -10z"/>
<path d="M1270 2460 c0 -5 5 -10 11 -10 5 0 7 5 4 10 -3 6 -8 10 -11 10 -2 0
-4 -4 -4 -10z"/>
<path d="M1326 2238 c3 -5 10 -6 15 -3 13 9 11 12 -6 12 -8 0 -12 -4 -9 -9z"/>
<path d="M1380 2046 c0 -2 8 -10 18 -17 15 -13 16 -12 3 4 -13 16 -21 21 -21
13z"/>
<path d="M1636 1062 c-2 -4 -1 -14 4 -22 7 -11 9 -9 7 8 -1 24 -3 26 -11 14z"/>
<path d="M1630 1000 c0 -4 7 -7 15 -6 23 3 26 12 5 13 -11 1 -20 -2 -20 -7z"/>
</g>
</svg>
